2.8Hzhigh3min_grf.mot
version=1
nRows=27
nColumns 19
inDegrees=yes
endheader
time	1_ground_force_vx	1_ground_force_vy	1_ground_force_vz	1_ground_force_px	1_ground_force_py	1_ground_force_pz	1_ground_torque_x	1_ground_torque_y	1_ground_torque_z	2_ground_force_vx	2_ground_force_vy	2_ground_force_vz	2_ground_force_px	2_ground_force_py	2_ground_force_pz	2_ground_torque_x	2_ground_torque_y	2_ground_torque_z
            2.502500	            6.358723	         1321.105344	         -105.784219	           -0.256717	            0.005959	           -0.344840	            0.005496	            1.141957	           -0.091439	            8.240911	         1311.016151	          103.034723	           -0.260824	            0.005505	           -0.687179	           -0.025172	           -4.004547	           -0.314723
            2.503000	            6.542912	         1319.121701	         -105.609753	           -0.256612	            0.005960	           -0.345011	            0.006131	            1.236130	           -0.098965	            7.823127	         1309.910667	          102.749391	           -0.260800	            0.005504	           -0.686998	           -0.024571	           -4.114139	           -0.322713
            2.503500	            6.314560	         1318.759688	         -105.289735	           -0.256593	            0.005960	           -0.345011	            0.006305	            1.316771	           -0.105131	            7.729824	         1309.728425	          102.138716	           -0.260690	            0.005504	           -0.686848	           -0.024213	           -4.102581	           -0.319938
            2.504000	            6.041033	         1317.856161	         -104.742645	           -0.256517	            0.005960	           -0.344998	            0.006122	            1.335428	           -0.106139	            7.728872	         1309.914847	          101.482379	           -0.260773	            0.005504	           -0.686898	           -0.024363	           -4.129071	           -0.319889
            2.504500	            5.583091	         1317.674868	         -104.558857	           -0.256470	            0.005960	           -0.344977	            0.005247	            1.238337	           -0.098263	            7.731078	         1309.181967	          100.447333	           -0.260694	            0.005504	           -0.686844	           -0.024057	           -4.073819	           -0.312565
            2.505000	            5.263835	         1316.770891	         -103.965803	           -0.256413	            0.005960	           -0.344991	            0.004829	            1.207928	           -0.095372	            7.639187	         1308.630652	          100.023041	           -0.260676	            0.005504	           -0.686825	           -0.023953	           -4.103322	           -0.313631
            2.505500	            4.898415	         1313.885193	         -103.656265	           -0.256432	            0.005961	           -0.345207	            0.004571	            1.226171	           -0.096736	            7.454863	         1307.711341	           99.456699	           -0.260623	            0.005504	           -0.686721	           -0.023661	           -4.150503	           -0.315662
            2.506000	            5.037232	         1312.441325	         -103.250090	           -0.256378	            0.005961	           -0.345235	            0.004943	            1.287984	           -0.101326	            6.848165	         1306.975090	           98.750416	           -0.260551	            0.005503	           -0.686594	           -0.021988	           -4.196463	           -0.317070
            2.506500	            5.083940	         1310.818051	         -103.027869	           -0.256188	            0.005962	           -0.345340	            0.005093	            1.313036	           -0.103202	            6.477374	         1305.868603	           98.793553	           -0.260385	            0.005504	           -0.686527	           -0.020990	           -4.231773	           -0.320149
            2.507000	            4.764749	         1309.553482	         -102.436361	           -0.256146	            0.005962	           -0.345322	            0.004975	            1.367410	           -0.106962	            5.967719	         1304.211636	           98.130865	           -0.260336	            0.005504	           -0.686511	           -0.019301	           -4.218138	           -0.317379
            2.507500	            4.216344	         1308.289113	         -101.844283	           -0.256130	            0.005961	           -0.345290	            0.004346	            1.348430	           -0.104969	            5.733867	         1304.028886	           97.520250	           -0.260258	            0.005504	           -0.686504	           -0.018289	           -4.159377	           -0.311054
            2.508000	            3.759657	         1306.844343	         -101.253206	           -0.256045	            0.005962	           -0.345356	            0.003722	            1.293779	           -0.100241	            5.456653	         1302.923742	           97.281778	           -0.260266	            0.005504	           -0.686422	           -0.017542	           -4.188632	           -0.312741
            2.508500	            3.532236	         1304.498455	         -100.712414	           -0.255934	            0.005961	           -0.345285	            0.003531	            1.303963	           -0.100671	            5.602957	         1301.268885	           96.759604	           -0.260187	            0.005504	           -0.686466	           -0.018069	           -4.196533	           -0.312045
            2.509000	            3.028913	         1301.793495	         -100.539334	           -0.255883	            0.005962	           -0.345337	            0.002992	            1.286031	           -0.099322	            4.996903	         1300.348477	           96.005728	           -0.259987	            0.005505	           -0.686332	           -0.016363	           -4.258042	           -0.314375
            2.509500	            3.122195	         1300.529446	          -99.994701	           -0.255811	            0.005962	           -0.345407	            0.003260	            1.357741	           -0.104394	            4.393630	         1298.690747	           95.530793	           -0.259920	            0.005505	           -0.686316	           -0.014549	           -4.300525	           -0.316344
            2.510000	            2.802144	         1298.365288	          -99.819757	           -0.255727	            0.005962	           -0.345494	            0.003000	            1.389962	           -0.106862	            3.884722	         1296.849031	           95.055160	           -0.259826	            0.005505	           -0.686294	           -0.013072	           -4.363970	           -0.319866
            2.510500	            2.436592	         1296.200775	          -99.507126	           -0.255633	            0.005962	           -0.345490	            0.002570	            1.367400	           -0.104973	            2.770191	         1294.083636	           94.811134	           -0.259758	            0.005505	           -0.686165	           -0.009144	           -4.271789	           -0.312973
            2.511000	            2.118055	         1293.853886	          -98.736832	           -0.255510	            0.005963	           -0.345542	            0.002263	            1.382109	           -0.105472	            2.496820	         1291.874941	           94.240232	           -0.259647	            0.005505	           -0.686058	           -0.008238	           -4.262296	           -0.310928
            2.511500	            1.524019	         1292.048301	          -98.101092	           -0.255475	            0.005962	           -0.345503	            0.001600	            1.356410	           -0.102988	            2.128461	         1290.033733	           93.764540	           -0.259542	            0.005505	           -0.686006	           -0.006999	           -4.241823	           -0.308312
            2.512000	            1.159024	         1288.080677	          -97.704488	           -0.255444	            0.005963	           -0.345681	            0.001146	            1.274140	           -0.096647	            1.711197	         1288.745340	           93.150062	           -0.259426	            0.005506	           -0.686120	           -0.005588	           -4.208664	           -0.304201
            2.512500	            0.703202	         1285.012380	          -96.891077	           -0.255250	            0.005963	           -0.345666	            0.000694	            1.268277	           -0.095629	            1.200213	         1287.456777	           92.488688	           -0.259338	            0.005506	           -0.686102	           -0.003917	           -4.201665	           -0.301840
            2.513000	            0.613116	         1282.486738	          -96.443119	           -0.255176	            0.005963	           -0.345727	            0.000634	            1.325583	           -0.099684	            0.881527	         1284.877836	           92.385773	           -0.259313	            0.005506	           -0.686039	           -0.002957	           -4.309553	           -0.309867
            2.513500	            0.156594	         1280.140609	          -95.855907	           -0.255051	            0.005963	           -0.345683	            0.000171	            1.396914	           -0.104600	           -0.136063	         1281.192562	           91.950709	           -0.259188	            0.005506	           -0.685876	            0.000451	           -4.249259	           -0.304968
            2.514000	           -0.208893	         1277.615504	          -95.544823	           -0.255105	            0.005963	           -0.345719	           -0.000232	            1.417607	           -0.106014	           -0.828363	         1278.245280	           91.518150	           -0.259044	            0.005506	           -0.685813	            0.002757	           -4.254074	           -0.304578
            2.514500	           -0.298638	         1275.089272	          -94.959293	           -0.254872	            0.005964	           -0.345762	           -0.000328	            1.400654	           -0.104310	           -1.341074	         1277.507024	           91.468806	           -0.258890	            0.005507	           -0.685903	            0.004311	           -4.106289	           -0.294008
            2.515000	           -0.708161	         1272.020198	          -93.962572	           -0.254754	            0.005964	           -0.345800	           -0.000720	            1.292565	           -0.095480	           -1.701559	         1273.456720	           90.750595	           -0.258906	            0.005506	           -0.685742	            0.005390	           -4.033987	           -0.287475
            2.515500	           -1.531406	         1267.691696	          -93.520524	           -0.254722	            0.005964	           -0.345814	           -0.001545	            1.278603	           -0.094326	           -2.113383	         1270.694198	           90.412414	           -0.258727	            0.005507	           -0.685700	            0.006723	           -4.042075	           -0.287602
